<svg width="1446" height="1024" viewBox="0 0 1446 1024" fill="none" xmlns="http://www.w3.org/2000/svg">
<g clip-path="url(#clip0_23_2)">
<rect width="1446" height="1024" fill="white"/>
<g filter="url(#filter0_f_23_2)">
<path d="M557.446 418.576C415.419 916.799 387.09 216.59 198.124 44.5531C37.7877 46.4147 -82.3662 80.6153 61.0597 19.4506C114.879 -3.50079 159.804 9.6662 198.124 44.5531C394.641 42.2714 651.521 88.5696 557.446 418.576Z" fill="url(#paint0_linear_23_2)"/>
<path d="M1052.74 454.67C997.195 80.2325 999.252 -543.258 1451.87 -41.7162C1850.17 459.825 1351.74 498.184 1052.74 454.67Z" fill="url(#paint1_linear_23_2)"/>
<path d="M225.42 595.452C216.502 588.359 207.405 578.636 198.153 565.791C197.414 564.765 196.681 563.752 195.952 562.752C182.079 611.691 165.159 671.378 144.653 743.291C-104.5 1617.03 -7.68008 709.124 -16.3467 704.791C-70.9174 675.852 -124.799 603.039 91.9857 541.736C88.4249 516.679 99.3544 430.16 195.952 562.752C291.035 227.319 242.969 396.786 225.42 595.452C339.729 686.36 424.572 344.925 428.653 604.291C428.653 604.291 542.306 657.05 428.653 886.291C315 1115.53 428.806 972.05 271.153 886.291C215.41 855.967 214.42 719.974 225.42 595.452Z" fill="url(#paint2_linear_23_2)"/>
<path d="M546.698 830.206C860.22 622.957 2295.79 16.6035 1667.83 830.206C1216.18 1415.38 99.4704 1125.84 546.698 830.206Z" fill="url(#paint3_linear_23_2)"/>
</g>
</g>
<defs>
<filter id="filter0_f_23_2" x="-365" y="-529" width="2490" height="1998" filterUnits="userSpaceOnUse" color-interpolation-filters="sRGB">
<feFlood flood-opacity="0" result="BackgroundImageFix"/>
<feBlend mode="normal" in="SourceGraphic" in2="BackgroundImageFix" result="shape"/>
<feGaussianBlur stdDeviation="150" result="effect1_foregroundBlur_23_2"/>
</filter>
<linearGradient id="paint0_linear_23_2" x1="-89.7246" y1="75.8195" x2="536.275" y2="343.319" gradientUnits="userSpaceOnUse">
<stop offset="0.0998606" stop-color="#68FF77"/>
<stop offset="1" stop-color="#1FFFFF"/>
</linearGradient>
<linearGradient id="paint1_linear_23_2" x1="1395.5" y1="-192.5" x2="1128" y2="433.5" gradientUnits="userSpaceOnUse">
<stop offset="0.0998606" stop-color="#68FF77"/>
<stop offset="1" stop-color="#1FFFFF"/>
</linearGradient>
<linearGradient id="paint2_linear_23_2" x1="91.6533" y1="508.791" x2="527.154" y2="983.291" gradientUnits="userSpaceOnUse">
<stop offset="0.123493" stop-color="#6201FF"/>
<stop offset="0.780618" stop-color="#D44BE0"/>
</linearGradient>
<linearGradient id="paint3_linear_23_2" x1="299.986" y1="1271.66" x2="593.749" y2="122.161" gradientUnits="userSpaceOnUse">
<stop offset="0.0260951" stop-color="#0075FF"/>
<stop offset="1" stop-color="#AF04FF"/>
</linearGradient>
<clipPath id="clip0_23_2">
<rect width="1446" height="1024" fill="white"/>
</clipPath>
</defs>
</svg>
